<svg width="62" height="50" viewBox="0 0 62 50" fill="none" xmlns="http://www.w3.org/2000/svg">
<path d="M20.6667 24.1206H7.74955C6.53498 24.1206 5.5954 23.0444 5.8663 21.8604C6.46542 19.2419 7.45577 16.7399 8.80294 14.4534C10.5333 11.5167 12.8142 9.00034 15.5 7.06502L18.615 4.81958C19.4656 4.20644 19.6982 3.04051 19.1481 2.14788L18.4105 0.950979C17.8012 -0.0378014 16.4805 -0.301329 15.5383 0.377847L12.6583 2.45391C8.76597 5.24301 5.57408 9.02213 3.36591 13.4559C1.15774 17.8897 0.00156831 22.841 0 27.8706V43.565C0 45.0384 0.544343 46.4515 1.51328 47.4934C2.48222 48.5353 3.79638 49.1206 5.16667 49.1206H20.6667C22.037 49.1206 23.3511 48.5353 24.32 47.4934C25.289 46.4515 25.8333 45.0384 25.8333 43.565V29.6761C25.8333 28.2027 25.289 26.7896 24.32 25.7478C23.3511 24.7059 22.037 24.1206 20.6667 24.1206ZM56.8333 24.1206H43.9162C42.7016 24.1206 41.7621 23.0444 42.033 21.8604C42.6321 19.2419 43.6224 16.7399 44.9696 14.4534C46.6999 11.5167 48.9808 9.00034 51.6667 7.06502L54.7878 4.81514C55.6358 4.20384 55.87 3.04258 55.3252 2.15039L54.5972 0.958188C53.9912 -0.0340334 52.6699 -0.302313 51.725 0.375034L48.825 2.45391C44.9326 5.24301 41.7407 9.02213 39.5326 13.4559C37.3244 17.8897 36.1682 22.841 36.1667 27.8706V43.565C36.1667 45.0384 36.711 46.4515 37.6799 47.4934C38.6489 48.5353 39.963 49.1206 41.3333 49.1206H56.8333C58.2036 49.1206 59.5178 48.5353 60.4867 47.4934C61.4557 46.4515 62 45.0384 62 43.565V29.6761C62 28.2027 61.4557 26.7896 60.4867 25.7478C59.5178 24.7059 58.2036 24.1206 56.8333 24.1206Z" fill="#00A4F4"/>
</svg>
