<svg width="32" height="32" viewBox="0 0 32 32" fill="none" xmlns="http://www.w3.org/2000/svg">
<path d="M13.6 19.4286L19.828 16L13.6 12.5714V19.4286ZM27.472 10.48C27.628 11.0171 27.736 11.7371 27.808 12.6514C27.892 13.5657 27.928 14.3543 27.928 15.04L28 16C28 18.5029 27.808 20.3429 27.472 21.52C27.172 22.5486 26.476 23.2114 25.396 23.4971C24.832 23.6457 23.8 23.7486 22.216 23.8171C20.656 23.8971 19.228 23.9314 17.908 23.9314L16 24C10.972 24 7.84 23.8171 6.604 23.4971C5.524 23.2114 4.828 22.5486 4.528 21.52C4.372 20.9829 4.264 20.2629 4.192 19.3486C4.108 18.4343 4.072 17.6457 4.072 16.96L4 16C4 13.4971 4.192 11.6571 4.528 10.48C4.828 9.45143 5.524 8.78857 6.604 8.50286C7.168 8.35429 8.2 8.25143 9.784 8.18286C11.344 8.10286 12.772 8.06857 14.092 8.06857L16 8C21.028 8 24.16 8.18286 25.396 8.50286C26.476 8.78857 27.172 9.45143 27.472 10.48Z" fill="#00A4F4"/>
</svg>
