<svg width="1366" height="631" viewBox="0 0 1366 631" fill="none" xmlns="http://www.w3.org/2000/svg">
<path d="M1436.77 2.96253C1373.63 2.96253 1310.38 -5.73618 1254.43 29.1213C1219.6 50.8194 1197.04 84.6491 1177.49 119.908C1152.83 164.383 1136 215.942 1097.32 249.162C1058.64 282.383 1010.8 302.448 963.449 313.174C906.067 326.173 851.686 288.041 812.96 249.47C765.365 202.068 731.892 137.721 731.098 69.4365C730.834 46.7497 748.14 21.6584 772.337 18.8117C814.14 13.8936 820.238 138.914 821.269 163.3C822.622 195.328 824.484 229.892 814.498 260.857C793.692 325.373 694 348.498 678.849 352.028C663.697 355.558 560.5 381.998 460.5 398.498C360.5 414.998 244.971 405.468 145.21 437.89C94.6367 454.327 41.7666 484.944 9.03086 527.599C-16.0686 560.305 -16.0372 589.917 -19.436 629.003" stroke="url(#paint0_linear_76_340)" stroke-width="4" stroke-linecap="round" stroke-dasharray="12 12"/>
<defs>
<linearGradient id="paint0_linear_76_340" x1="-19" y1="527.998" x2="1388" y2="1.9983" gradientUnits="userSpaceOnUse">
<stop stop-color="#00A3F4" stop-opacity="0.42"/>
<stop offset="0.563099" stop-color="#00A4F4" stop-opacity="0.11"/>
<stop offset="0.887261" stop-color="#00A4F4" stop-opacity="0.6"/>
</linearGradient>
</defs>
</svg>
