<svg width="142" height="40" viewBox="0 0 142 40" fill="none" xmlns="http://www.w3.org/2000/svg">
<path d="M0 1.00952C7.88887 1.00952 7.88894 9.52955 15.7778 9.52955C23.6667 9.52955 23.6666 1.00952 31.5555 1.00952C39.4444 1.00952 39.4444 9.52955 47.3333 9.52955C55.2222 9.52955 55.2223 1.00952 63.1111 1.00952C71 1.00952 71 9.52955 78.8887 9.52955C86.7775 9.52955 86.7775 1.00952 94.6669 1.00952C102.556 1.00952 102.556 9.52955 110.444 9.52955C118.333 9.52955 118.333 1.00952 126.222 1.00952C134.111 1.00952 134.111 9.52955 142 9.52955" stroke="url(#paint0_linear_76_609)" stroke-width="2.01896" stroke-miterlimit="10"/>
<path d="M0 15.3768C7.88887 15.3768 7.88894 23.8967 15.7778 23.8967C23.6667 23.8967 23.6666 15.3768 31.5555 15.3768C39.4444 15.3768 39.4444 23.8967 47.3333 23.8967C55.2222 23.8967 55.2223 15.3768 63.1111 15.3768C71 15.3768 71 23.8967 78.8887 23.8967C86.7775 23.8967 86.7775 15.3768 94.6669 15.3768C102.556 15.3768 102.556 23.8967 110.444 23.8967C118.333 23.8967 118.333 15.3768 126.222 15.3768C134.111 15.3768 134.111 23.8967 142 23.8967" stroke="url(#paint1_linear_76_609)" stroke-width="2.01896" stroke-miterlimit="10"/>
<path d="M0 29.5768C7.88887 29.5768 7.88894 38.0967 15.7778 38.0967C23.6667 38.0967 23.6666 29.5768 31.5555 29.5768C39.4444 29.5768 39.4444 38.0967 47.3333 38.0967C55.2222 38.0967 55.2223 29.5768 63.1111 29.5768C71 29.5768 71 38.0967 78.8887 38.0967C86.7775 38.0967 86.7775 29.5768 94.6669 29.5768C102.556 29.5768 102.556 38.0967 110.444 38.0967C118.333 38.0967 118.333 29.5768 126.222 29.5768C134.111 29.5768 134.111 38.0967 142 38.0967" stroke="url(#paint2_linear_76_609)" stroke-width="2.01896" stroke-miterlimit="10"/>
<defs>
<linearGradient id="paint0_linear_76_609" x1="26.931" y1="5.26954" x2="35.026" y2="25.7642" gradientUnits="userSpaceOnUse">
<stop stop-color="#0179B4"/>
<stop offset="0.876334" stop-color="#88D8FF"/>
</linearGradient>
<linearGradient id="paint1_linear_76_609" x1="26.931" y1="19.6368" x2="35.0259" y2="40.1313" gradientUnits="userSpaceOnUse">
<stop stop-color="#0179B4"/>
<stop offset="0.876334" stop-color="#88D8FF"/>
</linearGradient>
<linearGradient id="paint2_linear_76_609" x1="26.931" y1="33.8367" x2="35.0259" y2="54.3312" gradientUnits="userSpaceOnUse">
<stop stop-color="#0179B4"/>
<stop offset="0.876334" stop-color="#88D8FF"/>
</linearGradient>
</defs>
</svg>
