<svg width="116" height="59" viewBox="0 0 116 59" fill="none" xmlns="http://www.w3.org/2000/svg">
<g opacity="0.3">
<path d="M36.1998 0C34.8998 0 33.7998 1.09484 33.7998 2.38872C33.7998 3.68259 34.8998 4.7774 36.1998 4.7774C37.4998 4.7774 38.5998 3.68259 38.5998 2.38872C38.5998 1.09484 37.4998 0 36.1998 0Z" fill="#00A4F4"/>
<path d="M25.1002 0C23.8002 0 22.7002 1.09484 22.7002 2.38872C22.7002 3.68259 23.8002 4.7774 25.1002 4.7774C26.4002 4.7774 27.5002 3.68259 27.5002 2.38872C27.6002 1.09484 26.5002 0 25.1002 0Z" fill="#00A4F4"/>
<path d="M14.1002 0C12.8002 0 11.7002 1.09484 11.7002 2.38872C11.7002 3.68259 12.8002 4.7774 14.1002 4.7774C15.4002 4.7774 16.5002 3.68259 16.5002 2.38872C16.5002 1.09484 15.4002 0 14.1002 0Z" fill="#00A4F4"/>
<path d="M36.1998 11.4458C34.8998 11.4458 33.7998 12.5406 33.7998 13.8345C33.7998 15.1284 34.8998 16.2232 36.1998 16.2232C37.4998 16.2232 38.5998 15.1284 38.5998 13.8345C38.5998 12.5406 37.4998 11.4458 36.1998 11.4458Z" fill="#00A4F4"/>
<path d="M25.1002 11.4458C23.8002 11.4458 22.7002 12.5406 22.7002 13.8345C22.7002 15.1284 23.8002 16.2232 25.1002 16.2232C26.4002 16.2232 27.5002 15.1284 27.5002 13.8345C27.5002 12.5406 26.5002 11.4458 25.1002 11.4458Z" fill="#00A4F4"/>
<path d="M14.1002 11.4458C12.8002 11.4458 11.7002 12.5406 11.7002 13.8345C11.7002 15.1284 12.8002 16.2232 14.1002 16.2232C15.4002 16.2232 16.5002 15.1284 16.5002 13.8345C16.5002 12.5406 15.4002 11.4458 14.1002 11.4458Z" fill="#00A4F4"/>
<path d="M38.5998 25.2803C38.5998 23.961 37.5253 22.8916 36.1998 22.8916C34.8743 22.8916 33.7998 23.961 33.7998 25.2803C33.7998 26.5996 34.8743 27.669 36.1998 27.669C37.5253 27.669 38.5998 26.5996 38.5998 25.2803Z" fill="#00A4F4"/>
<path d="M27.5002 25.2803C27.5002 23.961 26.4257 22.8916 25.1002 22.8916C23.7747 22.8916 22.7002 23.961 22.7002 25.2803C22.7002 26.5996 23.7747 27.669 25.1002 27.669C26.4257 27.669 27.5002 26.5996 27.5002 25.2803Z" fill="#00A4F4"/>
<path d="M16.5002 25.2803C16.5002 23.961 15.4257 22.8916 14.1002 22.8916C12.7747 22.8916 11.7002 23.961 11.7002 25.2803C11.7002 26.5996 12.7747 27.669 14.1002 27.669C15.4257 27.669 16.5002 26.5996 16.5002 25.2803Z" fill="#00A4F4"/>
<path d="M36.1998 34.2383C34.8998 34.2383 33.7998 35.3331 33.7998 36.627C33.7998 37.9209 34.8998 39.0157 36.1998 39.0157C37.4998 39.0157 38.5998 37.9209 38.5998 36.627C38.5998 35.3331 37.4998 34.2383 36.1998 34.2383Z" fill="#00A4F4"/>
<path d="M25.1002 34.2383C23.8002 34.2383 22.7002 35.3331 22.7002 36.627C22.7002 37.9209 23.8002 39.0157 25.1002 39.0157C26.4002 39.0157 27.5002 37.9209 27.5002 36.627C27.5002 35.3331 26.5002 34.2383 25.1002 34.2383Z" fill="#00A4F4"/>
<path d="M14.1002 34.2383C12.8002 34.2383 11.7002 35.3331 11.7002 36.627C11.7002 37.9209 12.8002 39.0157 14.1002 39.0157C15.4002 39.0157 16.5002 37.9209 16.5002 36.627C16.5002 35.3331 15.4002 34.2383 14.1002 34.2383Z" fill="#00A4F4"/>
<path d="M36.1998 45.6841C34.8998 45.6841 33.7998 46.7789 33.7998 48.0728C33.7998 49.3667 34.8998 50.4615 36.1998 50.4615C37.4998 50.4615 38.5998 49.3667 38.5998 48.0728C38.5998 46.7789 37.4998 45.6841 36.1998 45.6841Z" fill="#00A4F4"/>
<path d="M25.1002 45.6841C23.8002 45.6841 22.7002 46.7789 22.7002 48.0728C22.7002 49.3667 23.8002 50.4615 25.1002 50.4615C26.4002 50.4615 27.5002 49.3667 27.5002 48.0728C27.6002 46.7789 26.5002 45.6841 25.1002 45.6841Z" fill="#00A4F4"/>
<path d="M14.1002 45.6841C12.8002 45.6841 11.7002 46.7789 11.7002 48.0728C11.7002 49.3667 12.8002 50.4615 14.1002 50.4615C15.4002 50.4615 16.5002 49.3667 16.5002 48.0728C16.5002 46.7789 15.4002 45.6841 14.1002 45.6841Z" fill="#00A4F4"/>
<path d="M113.6 4.8775C114.9 4.8775 116 3.78266 116 2.48879C116 1.19491 114.9 0.100098 113.6 0.100098C112.3 0.100098 111.2 1.19491 111.2 2.48879C111.2 3.78266 112.2 4.8775 113.6 4.8775Z" fill="#00A4F4"/>
<path d="M102.501 0C101.201 0 100.101 1.09484 100.101 2.38872C100.101 3.68259 101.201 4.7774 102.501 4.7774C103.801 4.7774 104.901 3.68259 104.901 2.38872C104.901 1.09484 103.901 0 102.501 0Z" fill="#00A4F4"/>
<path d="M91.5006 0C90.2006 0 89.1006 1.09484 89.1006 2.38872C89.1006 3.68259 90.2006 4.7774 91.5006 4.7774C92.8006 4.7774 93.9006 3.68259 93.9006 2.38872C93.9006 1.09484 92.8006 0 91.5006 0Z" fill="#00A4F4"/>
<path d="M80.4 0C79.1 0 78 1.09484 78 2.38872C78 3.68259 79.1 4.7774 80.4 4.7774C81.7 4.7774 82.8 3.68259 82.8 2.38872C82.8 1.09484 81.8 0 80.4 0Z" fill="#00A4F4"/>
<path d="M69.4 0C68.1 0 67 1.09484 67 2.38872C67 3.68259 68.1 4.7774 69.4 4.7774C70.7 4.7774 71.8 3.68259 71.8 2.38872C71.8 1.09484 70.7 0 69.4 0Z" fill="#00A4F4"/>
<path d="M58.3004 0C57.0004 0 55.9004 1.09484 55.9004 2.38872C55.9004 3.68259 57.0004 4.7774 58.3004 4.7774C59.6004 4.7774 60.7004 3.68259 60.7004 2.38872C60.7004 1.09484 59.6004 0 58.3004 0Z" fill="#00A4F4"/>
<path d="M47.1998 0C45.8998 0 44.7998 1.09484 44.7998 2.38872C44.7998 3.68259 45.8998 4.7774 47.1998 4.7774C48.4998 4.7774 49.5998 3.68259 49.5998 2.38872C49.6998 1.09484 48.5998 0 47.1998 0Z" fill="#00A4F4"/>
<path d="M113.6 11.4458C112.3 11.4458 111.2 12.5406 111.2 13.8345C111.2 15.1284 112.3 16.2232 113.6 16.2232C114.9 16.2232 116 15.1284 116 13.8345C116 12.5406 114.9 11.4458 113.6 11.4458Z" fill="#00A4F4"/>
<path d="M102.501 11.4458C101.201 11.4458 100.101 12.5406 100.101 13.8345C100.101 15.1284 101.201 16.2232 102.501 16.2232C103.801 16.2232 104.901 15.1284 104.901 13.8345C104.901 12.5406 103.901 11.4458 102.501 11.4458Z" fill="#00A4F4"/>
<path d="M91.5006 11.4458C90.2006 11.4458 89.1006 12.5406 89.1006 13.8345C89.1006 15.1284 90.2006 16.2232 91.5006 16.2232C92.8006 16.2232 93.9006 15.1284 93.9006 13.8345C93.9006 12.5406 92.8006 11.4458 91.5006 11.4458Z" fill="#00A4F4"/>
<path d="M80.4 11.4458C79.1 11.4458 78 12.5406 78 13.8345C78 15.1284 79.1 16.2232 80.4 16.2232C81.7 16.2232 82.8 15.1284 82.8 13.8345C82.8 12.5406 81.8 11.4458 80.4 11.4458Z" fill="#00A4F4"/>
<path d="M69.4 11.4458C68.1 11.4458 67 12.5406 67 13.8345C67 15.1284 68.1 16.2232 69.4 16.2232C70.7 16.2232 71.8 15.1284 71.8 13.8345C71.8 12.5406 70.7 11.4458 69.4 11.4458Z" fill="#00A4F4"/>
<path d="M58.3004 11.4458C57.0004 11.4458 55.9004 12.5406 55.9004 13.8345C55.9004 15.1284 57.0004 16.2232 58.3004 16.2232C59.6004 16.2232 60.7004 15.1284 60.7004 13.8345C60.7004 12.5406 59.6004 11.4458 58.3004 11.4458Z" fill="#00A4F4"/>
<path d="M47.1998 11.4458C45.8998 11.4458 44.7998 12.5406 44.7998 13.8345C44.7998 15.1284 45.8998 16.2232 47.1998 16.2232C48.4998 16.2232 49.5998 15.1284 49.5998 13.8345C49.5998 12.5406 48.5998 11.4458 47.1998 11.4458Z" fill="#00A4F4"/>
<path d="M113.6 22.8916C112.3 22.8916 111.2 23.9864 111.2 25.2803C111.2 26.5742 112.3 27.669 113.6 27.669C114.9 27.669 116 26.5742 116 25.2803C116 23.9864 114.9 22.8916 113.6 22.8916Z" fill="#00A4F4"/>
<path d="M102.501 22.8916C101.201 22.8916 100.101 23.9864 100.101 25.2803C100.101 26.5742 101.201 27.669 102.501 27.669C103.801 27.669 104.901 26.5742 104.901 25.2803C104.901 23.9864 103.901 22.8916 102.501 22.8916Z" fill="#00A4F4"/>
<path d="M91.5006 22.8916C90.2006 22.8916 89.1006 23.9864 89.1006 25.2803C89.1006 26.5742 90.2006 27.669 91.5006 27.669C92.8006 27.669 93.9006 26.5742 93.9006 25.2803C93.9006 23.9864 92.8006 22.8916 91.5006 22.8916Z" fill="#00A4F4"/>
<path d="M80.4 22.8916C79.1 22.8916 78 23.9864 78 25.2803C78 26.5742 79.1 27.669 80.4 27.669C81.7 27.669 82.8 26.5742 82.8 25.2803C82.8 23.9864 81.8 22.8916 80.4 22.8916Z" fill="#00A4F4"/>
<path d="M71.8 25.2803C71.8 23.961 70.7255 22.8916 69.4 22.8916C68.0745 22.8916 67 23.961 67 25.2803C67 26.5996 68.0745 27.669 69.4 27.669C70.7255 27.669 71.8 26.5996 71.8 25.2803Z" fill="#00A4F4"/>
<path d="M58.3004 22.8916C57.0004 22.8916 55.9004 23.9864 55.9004 25.2803C55.9004 26.5742 57.0004 27.669 58.3004 27.669C59.6004 27.669 60.7004 26.5742 60.7004 25.2803C60.7004 23.9864 59.6004 22.8916 58.3004 22.8916Z" fill="#00A4F4"/>
<path d="M47.1998 22.8916C45.8998 22.8916 44.7998 23.9864 44.7998 25.2803C44.7998 26.5742 45.8998 27.669 47.1998 27.669C48.4998 27.669 49.5998 26.5742 49.5998 25.2803C49.6998 23.9864 48.5998 22.8916 47.1998 22.8916Z" fill="#00A4F4"/>
<path d="M113.6 34.2383C112.3 34.2383 111.2 35.3331 111.2 36.627C111.2 37.9209 112.3 39.0157 113.6 39.0157C114.9 39.0157 116 37.9209 116 36.627C116 35.3331 114.9 34.2383 113.6 34.2383Z" fill="#00A4F4"/>
<path d="M102.501 34.2383C101.201 34.2383 100.101 35.3331 100.101 36.627C100.101 37.9209 101.201 39.0157 102.501 39.0157C103.801 39.0157 104.901 37.9209 104.901 36.627C104.901 35.3331 103.901 34.2383 102.501 34.2383Z" fill="#00A4F4"/>
<path d="M91.5006 34.2383C90.2006 34.2383 89.1006 35.3331 89.1006 36.627C89.1006 37.9209 90.2006 39.0157 91.5006 39.0157C92.8006 39.0157 93.9006 37.9209 93.9006 36.627C93.9006 35.3331 92.8006 34.2383 91.5006 34.2383Z" fill="#00A4F4"/>
<path d="M80.4 34.2383C79.1 34.2383 78 35.3331 78 36.627C78 37.9209 79.1 39.0157 80.4 39.0157C81.7 39.0157 82.8 37.9209 82.8 36.627C82.8 35.3331 81.8 34.2383 80.4 34.2383Z" fill="#00A4F4"/>
<path d="M69.4 34.2383C68.1 34.2383 67 35.3331 67 36.627C67 37.9209 68.1 39.0157 69.4 39.0157C70.7 39.0157 71.8 37.9209 71.8 36.627C71.8 35.3331 70.7 34.2383 69.4 34.2383Z" fill="#00A4F4"/>
<path d="M58.3004 34.2383C57.0004 34.2383 55.9004 35.3331 55.9004 36.627C55.9004 37.9209 57.0004 39.0157 58.3004 39.0157C59.6004 39.0157 60.7004 37.9209 60.7004 36.627C60.7004 35.3331 59.6004 34.2383 58.3004 34.2383Z" fill="#00A4F4"/>
<path d="M47.1998 34.2383C45.8998 34.2383 44.7998 35.3331 44.7998 36.627C44.7998 37.9209 45.8998 39.0157 47.1998 39.0157C48.4998 39.0157 49.5998 37.9209 49.5998 36.627C49.5998 35.3331 48.5998 34.2383 47.1998 34.2383Z" fill="#00A4F4"/>
<path d="M113.6 45.6841C112.3 45.6841 111.2 46.7789 111.2 48.0728C111.2 49.3667 112.3 50.4615 113.6 50.4615C114.9 50.4615 116 49.3667 116 48.0728C116 46.7789 114.9 45.6841 113.6 45.6841Z" fill="#00A4F4"/>
<path d="M102.501 45.6841C101.201 45.6841 100.101 46.7789 100.101 48.0728C100.101 49.3667 101.201 50.4615 102.501 50.4615C103.801 50.4615 104.901 49.3667 104.901 48.0728C104.901 46.7789 103.901 45.6841 102.501 45.6841Z" fill="#00A4F4"/>
<path d="M91.5006 45.6841C90.2006 45.6841 89.1006 46.7789 89.1006 48.0728C89.1006 49.3667 90.2006 50.4615 91.5006 50.4615C92.8006 50.4615 93.9006 49.3667 93.9006 48.0728C93.9006 46.7789 92.8006 45.6841 91.5006 45.6841Z" fill="#00A4F4"/>
<path d="M80.4 45.6841C79.1 45.6841 78 46.7789 78 48.0728C78 49.3667 79.1 50.4615 80.4 50.4615C81.7 50.4615 82.8 49.3667 82.8 48.0728C82.8 46.7789 81.8 45.6841 80.4 45.6841Z" fill="#00A4F4"/>
<path d="M69.4 45.6841C68.1 45.6841 67 46.7789 67 48.0728C67 49.3667 68.1 50.4615 69.4 50.4615C70.7 50.4615 71.8 49.3667 71.8 48.0728C71.8 46.7789 70.7 45.6841 69.4 45.6841Z" fill="#00A4F4"/>
<path d="M58.3004 45.6841C57.0004 45.6841 55.9004 46.7789 55.9004 48.0728C55.9004 49.3667 57.0004 50.4615 58.3004 50.4615C59.6004 50.4615 60.7004 49.3667 60.7004 48.0728C60.7004 46.7789 59.6004 45.6841 58.3004 45.6841Z" fill="#00A4F4"/>
<path d="M47.1998 45.6841C45.8998 45.6841 44.7998 46.7789 44.7998 48.0728C44.7998 49.3667 45.8998 50.4615 47.1998 50.4615C48.4998 50.4615 49.5998 49.3667 49.5998 48.0728C49.6998 46.7789 48.5998 45.6841 47.1998 45.6841Z" fill="#00A4F4"/>
<path d="M24.4996 8.36084C23.1996 8.36084 22.0996 9.45565 22.0996 10.7495C22.0996 12.0434 23.1996 13.1382 24.4996 13.1382C25.7996 13.1382 26.8996 12.0434 26.8996 10.7495C26.8996 9.45565 25.7996 8.36084 24.4996 8.36084Z" fill="#0069AB"/>
<path d="M13.4 8.36084C12.1 8.36084 11 9.45565 11 10.7495C11 12.0434 12.1 13.1382 13.4 13.1382C14.7 13.1382 15.8 12.0434 15.8 10.7495C15.8 9.45565 14.8 8.36084 13.4 8.36084Z" fill="#0069AB"/>
<path d="M2.39999 8.36084C1.09999 8.36084 0 9.45565 0 10.7495C0 12.0434 1.09999 13.1382 2.39999 13.1382C3.69999 13.1382 4.79999 12.0434 4.79999 10.7495C4.79999 9.45565 3.69999 8.36084 2.39999 8.36084Z" fill="#0069AB"/>
<path d="M24.4996 19.8066C23.1996 19.8066 22.0996 20.9015 22.0996 22.1953C22.0996 23.4892 23.1996 24.584 24.4996 24.584C25.7996 24.584 26.8996 23.4892 26.8996 22.1953C26.8996 20.9015 25.7996 19.8066 24.4996 19.8066Z" fill="#0069AB"/>
<path d="M13.4 19.8066C12.1 19.8066 11 20.9015 11 22.1953C11 23.4892 12.1 24.584 13.4 24.584C14.7 24.584 15.8 23.4892 15.8 22.1953C15.8 20.9015 14.8 19.8066 13.4 19.8066Z" fill="#0069AB"/>
<path d="M2.39999 19.8066C1.09999 19.8066 0 20.9015 0 22.1953C0 23.4892 1.09999 24.584 2.39999 24.584C3.69999 24.584 4.79999 23.4892 4.79999 22.1953C4.79999 20.9015 3.69999 19.8066 2.39999 19.8066Z" fill="#0069AB"/>
<path d="M24.4996 31.1528C23.1996 31.1528 22.0996 32.2476 22.0996 33.5415C22.0996 34.8354 23.1996 35.9302 24.4996 35.9302C25.7996 35.9302 26.8996 34.8354 26.8996 33.5415C26.8996 32.2476 25.7996 31.1528 24.4996 31.1528Z" fill="#0069AB"/>
<path d="M13.4 31.1528C12.1 31.1528 11 32.2476 11 33.5415C11 34.8354 12.1 35.9302 13.4 35.9302C14.7 35.9302 15.8 34.8354 15.8 33.5415C15.8 32.2476 14.8 31.1528 13.4 31.1528Z" fill="#0069AB"/>
<path d="M2.39999 31.1528C1.09999 31.1528 0 32.2476 0 33.5415C0 34.8354 1.09999 35.9302 2.39999 35.9302C3.69999 35.9302 4.79999 34.8354 4.79999 33.5415C4.79999 32.2476 3.69999 31.1528 2.39999 31.1528Z" fill="#0069AB"/>
<path d="M24.4996 42.5986C23.1996 42.5986 22.0996 43.6935 22.0996 44.9873C22.0996 46.2812 23.1996 47.376 24.4996 47.376C25.7996 47.376 26.8996 46.2812 26.8996 44.9873C26.8996 43.6935 25.7996 42.5986 24.4996 42.5986Z" fill="#0069AB"/>
<path d="M13.4 42.5986C12.1 42.5986 11 43.6935 11 44.9873C11 46.2812 12.1 47.376 13.4 47.376C14.7 47.376 15.8 46.2812 15.8 44.9873C15.8 43.6935 14.8 42.5986 13.4 42.5986Z" fill="#0069AB"/>
<path d="M2.39999 42.5986C1.09999 42.5986 0 43.6935 0 44.9873C0 46.2812 1.09999 47.376 2.39999 47.376C3.69999 47.376 4.79999 46.2812 4.79999 44.9873C4.79999 43.6935 3.69999 42.5986 2.39999 42.5986Z" fill="#0069AB"/>
<path d="M24.4996 53.9448C23.1996 53.9448 22.0996 55.0396 22.0996 56.3335C22.0996 57.6274 23.1996 58.7222 24.4996 58.7222C25.7996 58.7222 26.8996 57.6274 26.8996 56.3335C26.8996 55.0396 25.7996 53.9448 24.4996 53.9448Z" fill="#0069AB"/>
<path d="M13.4 53.9448C12.1 53.9448 11 55.0396 11 56.3335C11 57.6274 12.1 58.7222 13.4 58.7222C14.7 58.7222 15.8 57.6274 15.8 56.3335C15.8 55.0396 14.8 53.9448 13.4 53.9448Z" fill="#0069AB"/>
<path d="M2.39999 53.9448C1.09999 53.9448 0 55.0396 0 56.3335C0 57.6274 1.09999 58.7222 2.39999 58.7222C3.69999 58.7222 4.79999 57.6274 4.79999 56.3335C4.79999 55.0396 3.69999 53.9448 2.39999 53.9448Z" fill="#0069AB"/>
<path d="M101.9 13.2374C103.2 13.2374 104.3 12.1425 104.3 10.8487C104.3 9.55479 103.2 8.45996 101.9 8.45996C100.6 8.45996 99.5 9.55479 99.5 10.8487C99.5 12.1425 100.5 13.2374 101.9 13.2374Z" fill="#0069AB"/>
<path d="M93.2004 10.7495C93.2004 9.43029 92.1259 8.36084 90.8004 8.36084C89.4749 8.36084 88.4004 9.43029 88.4004 10.7495C88.4004 12.0688 89.4749 13.1382 90.8004 13.1382C92.1259 13.1382 93.2004 12.0688 93.2004 10.7495Z" fill="#0069AB"/>
<path d="M79.8004 8.36084C78.5004 8.36084 77.4004 9.45565 77.4004 10.7495C77.4004 12.0434 78.5004 13.1382 79.8004 13.1382C81.1004 13.1382 82.2004 12.0434 82.2004 10.7495C82.2004 9.45565 81.1004 8.36084 79.8004 8.36084Z" fill="#0069AB"/>
<path d="M71.0998 10.7495C71.0998 9.43029 70.0253 8.36084 68.6998 8.36084C67.3743 8.36084 66.2998 9.43029 66.2998 10.7495C66.2998 12.0688 67.3743 13.1382 68.6998 13.1382C70.0253 13.1382 71.0998 12.0688 71.0998 10.7495Z" fill="#0069AB"/>
<path d="M60.0002 10.7495C60.0002 9.43029 58.9257 8.36084 57.6002 8.36084C56.2747 8.36084 55.2002 9.43029 55.2002 10.7495C55.2002 12.0688 56.2747 13.1382 57.6002 13.1382C58.9257 13.1382 60.0002 12.0688 60.0002 10.7495Z" fill="#0069AB"/>
<path d="M46.6002 8.36084C45.3002 8.36084 44.2002 9.45565 44.2002 10.7495C44.2002 12.0434 45.3002 13.1382 46.6002 13.1382C47.9002 13.1382 49.0002 12.0434 49.0002 10.7495C49.0002 9.45565 47.9002 8.36084 46.6002 8.36084Z" fill="#0069AB"/>
<path d="M37.8996 10.7495C37.8996 9.43029 36.8251 8.36084 35.4996 8.36084C34.1741 8.36084 33.0996 9.43029 33.0996 10.7495C33.0996 12.0688 34.1741 13.1382 35.4996 13.1382C36.8251 13.1382 37.8996 12.0688 37.8996 10.7495Z" fill="#0069AB"/>
<path d="M101.9 19.8066C100.6 19.8066 99.5 20.9015 99.5 22.1953C99.5 23.4892 100.6 24.584 101.9 24.584C103.2 24.584 104.3 23.4892 104.3 22.1953C104.3 20.9015 103.2 19.8066 101.9 19.8066Z" fill="#0069AB"/>
<path d="M93.2004 22.1953C93.2004 20.8761 92.1259 19.8066 90.8004 19.8066C89.4749 19.8066 88.4004 20.8761 88.4004 22.1953C88.4004 23.5146 89.4749 24.584 90.8004 24.584C92.1259 24.584 93.2004 23.5146 93.2004 22.1953Z" fill="#0069AB"/>
<path d="M79.8004 19.8066C78.5004 19.8066 77.4004 20.9015 77.4004 22.1953C77.4004 23.4892 78.5004 24.584 79.8004 24.584C81.1004 24.584 82.2004 23.4892 82.2004 22.1953C82.2004 20.9015 81.1004 19.8066 79.8004 19.8066Z" fill="#0069AB"/>
<path d="M71.0998 22.1953C71.0998 20.8761 70.0253 19.8066 68.6998 19.8066C67.3743 19.8066 66.2998 20.8761 66.2998 22.1953C66.2998 23.5146 67.3743 24.584 68.6998 24.584C70.0253 24.584 71.0998 23.5146 71.0998 22.1953Z" fill="#0069AB"/>
<path d="M60.0002 22.1953C60.0002 20.8761 58.9257 19.8066 57.6002 19.8066C56.2747 19.8066 55.2002 20.8761 55.2002 22.1953C55.2002 23.5146 56.2747 24.584 57.6002 24.584C58.9257 24.584 60.0002 23.5146 60.0002 22.1953Z" fill="#0069AB"/>
<path d="M46.6002 19.8066C45.3002 19.8066 44.2002 20.9015 44.2002 22.1953C44.2002 23.4892 45.3002 24.584 46.6002 24.584C47.9002 24.584 49.0002 23.4892 49.0002 22.1953C49.0002 20.9015 47.9002 19.8066 46.6002 19.8066Z" fill="#0069AB"/>
<path d="M37.8996 22.1953C37.8996 20.8761 36.8251 19.8066 35.4996 19.8066C34.1741 19.8066 33.0996 20.8761 33.0996 22.1953C33.0996 23.5146 34.1741 24.584 35.4996 24.584C36.8251 24.584 37.8996 23.5146 37.8996 22.1953Z" fill="#0069AB"/>
<path d="M101.9 31.1528C100.6 31.1528 99.5 32.2476 99.5 33.5415C99.5 34.8354 100.6 35.9302 101.9 35.9302C103.2 35.9302 104.3 34.8354 104.3 33.5415C104.3 32.2476 103.2 31.1528 101.9 31.1528Z" fill="#0069AB"/>
<path d="M90.8004 31.1528C89.5004 31.1528 88.4004 32.2476 88.4004 33.5415C88.4004 34.8354 89.5004 35.9302 90.8004 35.9302C92.1004 35.9302 93.2004 34.8354 93.2004 33.5415C93.2004 32.2476 92.2004 31.1528 90.8004 31.1528Z" fill="#0069AB"/>
<path d="M79.8004 31.1528C78.5004 31.1528 77.4004 32.2476 77.4004 33.5415C77.4004 34.8354 78.5004 35.9302 79.8004 35.9302C81.1004 35.9302 82.2004 34.8354 82.2004 33.5415C82.2004 32.2476 81.1004 31.1528 79.8004 31.1528Z" fill="#0069AB"/>
<path d="M68.6998 31.1528C67.3998 31.1528 66.2998 32.2476 66.2998 33.5415C66.2998 34.8354 67.3998 35.9302 68.6998 35.9302C69.9998 35.9302 71.0998 34.8354 71.0998 33.5415C71.0998 32.2476 69.9998 31.1528 68.6998 31.1528Z" fill="#0069AB"/>
<path d="M57.6002 31.1528C56.3002 31.1528 55.2002 32.2476 55.2002 33.5415C55.2002 34.8354 56.3002 35.9302 57.6002 35.9302C58.9002 35.9302 60.0002 34.8354 60.0002 33.5415C60.1002 32.2476 59.0002 31.1528 57.6002 31.1528Z" fill="#0069AB"/>
<path d="M46.6002 31.1528C45.3002 31.1528 44.2002 32.2476 44.2002 33.5415C44.2002 34.8354 45.3002 35.9302 46.6002 35.9302C47.9002 35.9302 49.0002 34.8354 49.0002 33.5415C49.0002 32.2476 47.9002 31.1528 46.6002 31.1528Z" fill="#0069AB"/>
<path d="M35.4996 31.1528C34.1996 31.1528 33.0996 32.2476 33.0996 33.5415C33.0996 34.8354 34.1996 35.9302 35.4996 35.9302C36.7996 35.9302 37.8996 34.8354 37.8996 33.5415C37.9996 32.2476 36.8996 31.1528 35.4996 31.1528Z" fill="#0069AB"/>
<path d="M101.9 42.5986C100.6 42.5986 99.5 43.6935 99.5 44.9873C99.5 46.2812 100.6 47.376 101.9 47.376C103.2 47.376 104.3 46.2812 104.3 44.9873C104.3 43.6935 103.2 42.5986 101.9 42.5986Z" fill="#0069AB"/>
<path d="M90.8004 42.5986C89.5004 42.5986 88.4004 43.6935 88.4004 44.9873C88.4004 46.2812 89.5004 47.376 90.8004 47.376C92.1004 47.376 93.2004 46.2812 93.2004 44.9873C93.2004 43.6935 92.2004 42.5986 90.8004 42.5986Z" fill="#0069AB"/>
<path d="M79.8004 42.5986C78.5004 42.5986 77.4004 43.6935 77.4004 44.9873C77.4004 46.2812 78.5004 47.376 79.8004 47.376C81.1004 47.376 82.2004 46.2812 82.2004 44.9873C82.2004 43.6935 81.1004 42.5986 79.8004 42.5986Z" fill="#0069AB"/>
<path d="M68.6998 42.5986C67.3998 42.5986 66.2998 43.6935 66.2998 44.9873C66.2998 46.2812 67.3998 47.376 68.6998 47.376C69.9998 47.376 71.0998 46.2812 71.0998 44.9873C71.0998 43.6935 69.9998 42.5986 68.6998 42.5986Z" fill="#0069AB"/>
<path d="M57.6002 42.5986C56.3002 42.5986 55.2002 43.6935 55.2002 44.9873C55.2002 46.2812 56.3002 47.376 57.6002 47.376C58.9002 47.376 60.0002 46.2812 60.0002 44.9873C60.1002 43.6935 59.0002 42.5986 57.6002 42.5986Z" fill="#0069AB"/>
<path d="M46.6002 42.5986C45.3002 42.5986 44.2002 43.6935 44.2002 44.9873C44.2002 46.2812 45.3002 47.376 46.6002 47.376C47.9002 47.376 49.0002 46.2812 49.0002 44.9873C49.0002 43.6935 47.9002 42.5986 46.6002 42.5986Z" fill="#0069AB"/>
<path d="M35.4996 42.5986C34.1996 42.5986 33.0996 43.6935 33.0996 44.9873C33.0996 46.2812 34.1996 47.376 35.4996 47.376C36.7996 47.376 37.8996 46.2812 37.8996 44.9873C37.9996 43.6935 36.8996 42.5986 35.4996 42.5986Z" fill="#0069AB"/>
<path d="M101.9 53.9448C100.6 53.9448 99.5 55.0396 99.5 56.3335C99.5 57.6274 100.6 58.7222 101.9 58.7222C103.2 58.7222 104.3 57.6274 104.3 56.3335C104.3 55.0396 103.2 53.9448 101.9 53.9448Z" fill="#0069AB"/>
<path d="M90.8004 53.9448C89.5004 53.9448 88.4004 55.0396 88.4004 56.3335C88.4004 57.6274 89.5004 58.7222 90.8004 58.7222C92.1004 58.7222 93.2004 57.6274 93.2004 56.3335C93.2004 55.0396 92.2004 53.9448 90.8004 53.9448Z" fill="#0069AB"/>
<path d="M79.8004 53.9448C78.5004 53.9448 77.4004 55.0396 77.4004 56.3335C77.4004 57.6274 78.5004 58.7222 79.8004 58.7222C81.1004 58.7222 82.2004 57.6274 82.2004 56.3335C82.2004 55.0396 81.1004 53.9448 79.8004 53.9448Z" fill="#0069AB"/>
<path d="M68.6998 53.9448C67.3998 53.9448 66.2998 55.0396 66.2998 56.3335C66.2998 57.6274 67.3998 58.7222 68.6998 58.7222C69.9998 58.7222 71.0998 57.6274 71.0998 56.3335C71.0998 55.0396 69.9998 53.9448 68.6998 53.9448Z" fill="#0069AB"/>
<path d="M57.6002 53.9448C56.3002 53.9448 55.2002 55.0396 55.2002 56.3335C55.2002 57.6274 56.3002 58.7222 57.6002 58.7222C58.9002 58.7222 60.0002 57.6274 60.0002 56.3335C60.0002 55.0396 59.0002 53.9448 57.6002 53.9448Z" fill="#0069AB"/>
<path d="M46.6002 53.9448C45.3002 53.9448 44.2002 55.0396 44.2002 56.3335C44.2002 57.6274 45.3002 58.7222 46.6002 58.7222C47.9002 58.7222 49.0002 57.6274 49.0002 56.3335C49.0002 55.0396 47.9002 53.9448 46.6002 53.9448Z" fill="#0069AB"/>
<path d="M35.4996 53.9448C34.1996 53.9448 33.0996 55.0396 33.0996 56.3335C33.0996 57.6274 34.1996 58.7222 35.4996 58.7222C36.7996 58.7222 37.8996 57.6274 37.8996 56.3335C37.8996 55.0396 36.8996 53.9448 35.4996 53.9448Z" fill="#0069AB"/>
</g>
</svg>
