<svg width="142" height="40" viewBox="0 0 142 40" fill="none" xmlns="http://www.w3.org/2000/svg">
<path d="M142 1.00952C134.111 1.00952 134.111 9.56988 126.222 9.56988C118.333 9.56988 118.333 1.00952 110.445 1.00952C102.556 1.00952 102.556 9.56988 94.6667 9.56988C86.7778 9.56988 86.7777 1.00952 78.8889 1.00952C71 1.00952 71 9.56988 63.1113 9.56988C55.2225 9.56988 55.2225 1.00952 47.3331 1.00952C39.4444 1.00952 39.4444 9.56988 31.5556 9.56988C23.6669 9.56988 23.6669 1.00952 15.7782 1.00952C7.88874 1.00952 7.88874 9.56988 -2.14577e-06 9.56988" stroke="url(#paint0_linear_2001_261)" stroke-width="2.01896" stroke-miterlimit="10"/>
<path d="M142 15.4448C134.111 15.4448 134.111 24.0051 126.222 24.0051C118.333 24.0051 118.333 15.4448 110.445 15.4448C102.556 15.4448 102.556 24.0051 94.6667 24.0051C86.7778 24.0051 86.7777 15.4448 78.8889 15.4448C71 15.4448 71 24.0051 63.1113 24.0051C55.2225 24.0051 55.2225 15.4448 47.3331 15.4448C39.4444 15.4448 39.4444 24.0051 31.5556 24.0051C23.6669 24.0051 23.6669 15.4448 15.7782 15.4448C7.88874 15.4448 7.88874 24.0051 -2.14577e-06 24.0051" stroke="url(#paint1_linear_2001_261)" stroke-width="2.01896" stroke-miterlimit="10"/>
<path d="M142 29.7119C134.111 29.7119 134.111 38.2722 126.222 38.2722C118.333 38.2722 118.333 29.7119 110.445 29.7119C102.556 29.7119 102.556 38.2722 94.6667 38.2722C86.7778 38.2722 86.7777 29.7119 78.8889 29.7119C71 29.7119 71 38.2722 63.1113 38.2722C55.2225 38.2722 55.2225 29.7119 47.3331 29.7119C39.4444 29.7119 39.4444 38.2722 31.5556 38.2722C23.6669 38.2722 23.6669 29.7119 15.7782 29.7119C7.88874 29.7119 7.88874 38.2722 -2.14577e-06 38.2722" stroke="url(#paint2_linear_2001_261)" stroke-width="2.01896" stroke-miterlimit="10"/>
<defs>
<linearGradient id="paint0_linear_2001_261" x1="115.069" y1="5.2897" x2="106.908" y2="25.8551" gradientUnits="userSpaceOnUse">
<stop stop-color="#0179B4"/>
<stop offset="0.876334" stop-color="#88D8FF"/>
</linearGradient>
<linearGradient id="paint1_linear_2001_261" x1="115.069" y1="19.7249" x2="106.908" y2="40.2901" gradientUnits="userSpaceOnUse">
<stop stop-color="#0179B4"/>
<stop offset="0.876334" stop-color="#88D8FF"/>
</linearGradient>
<linearGradient id="paint2_linear_2001_261" x1="115.069" y1="33.992" x2="106.908" y2="54.5572" gradientUnits="userSpaceOnUse">
<stop stop-color="#0179B4"/>
<stop offset="0.876334" stop-color="#88D8FF"/>
</linearGradient>
</defs>
</svg>
