<svg width="245" height="252" viewBox="0 0 245 252" fill="none" xmlns="http://www.w3.org/2000/svg">
<path d="M0 153.16C0 140.948 2.3939 128.856 7.04532 117.574C11.6968 106.292 18.5142 96.0404 27.1089 87.4053C35.7035 78.7703 45.9064 71.9206 57.1356 67.2473C68.3654 62.5745 80.4008 60.1689 92.5556 60.1689V153.16H0Z" fill="#00A4F4"/>
<path d="M0 153.161C0 166.091 2.3939 178.895 7.04532 190.841C11.6968 202.787 18.5142 213.641 27.1089 222.784C35.7035 231.926 45.9064 239.179 57.1356 244.127C68.3654 249.075 80.4008 251.622 92.5556 251.622V153.161H0Z" fill="#2CBEFF"/>
<path d="M185.111 153.161C185.111 166.091 182.719 178.895 178.068 190.841C173.417 202.787 166.599 213.641 158.003 222.784C149.408 231.926 139.205 239.179 127.975 244.127C116.746 249.075 104.71 251.622 92.5556 251.622V153.161H185.111Z" fill="#75D4FF"/>
<path d="M245 71.1106C245 110.384 213.31 142.221 174.222 142.221H103.444V71.1106C103.444 31.8374 135.133 0 174.222 0C213.31 0 245 31.8374 245 71.1106Z" fill="#0084D4"/>
</svg>
