<svg width="168" height="144" viewBox="0 0 168 144" fill="none" xmlns="http://www.w3.org/2000/svg">
<path d="M0 55.9996C0 51.5347 0.875278 47.1133 2.57597 42.9885C4.27668 38.8632 6.76933 35.1151 9.91179 31.9579C13.0542 28.8007 16.7847 26.2962 20.8904 24.5875C24.9963 22.879 29.3968 21.9995 33.841 21.9995V55.9996H0Z" fill="#00A4F4"/>
<path d="M0 56C0 60.7277 0.875278 65.4089 2.57597 69.7768C4.27668 74.1445 6.76933 78.113 9.91179 81.4559C13.0542 84.7989 16.7847 87.4506 20.8904 89.2598C24.9963 91.069 29.3968 92.0001 33.841 92.0001V56H0Z" fill="#2CBEFF"/>
<path d="M67.6819 56C67.6819 60.7277 66.8073 65.4089 65.1067 69.7768C63.406 74.1445 60.9134 78.113 57.7704 81.4559C54.6279 84.7989 50.8973 87.4506 46.7913 89.2598C42.6857 91.069 38.285 92.0001 33.841 92.0001V56H67.6819Z" fill="#75D4FF"/>
<path d="M89.579 26.0001C89.579 40.3595 77.9924 52.0001 63.7004 52.0001H37.8222V26.0001C37.8222 11.6407 49.4084 0 63.7004 0C77.9924 0 89.579 11.6407 89.579 26.0001Z" fill="#0084D4"/>
<path d="M7.98 139H1.68V110.86H7.98V122.032H22.68V110.86H28.98V139H22.68V127.702H7.98V139ZM43.5317 139.42C36.5177 139.42 31.7297 135.976 31.7297 128.5C31.7297 121.78 36.4757 117.538 43.4057 117.538C50.2937 117.538 54.8717 121.15 54.8717 127.744C54.8717 128.5 54.7877 129.046 54.7037 129.76H37.5677C37.7357 132.994 39.2477 134.38 43.3217 134.38C47.0597 134.38 48.3617 133.414 48.3617 131.608V131.188H54.6617V131.65C54.6617 136.228 50.2097 139.42 43.5317 139.42ZM43.2797 122.452C39.5417 122.452 37.9457 123.712 37.6517 126.442H48.8237C48.6557 123.67 46.9757 122.452 43.2797 122.452ZM64.0113 139.42C59.4753 139.42 56.7453 137.32 56.7453 133.792C56.7453 130.684 59.0553 128.752 63.5493 128.29L72.5793 127.366V126.568C72.5793 123.838 71.3613 123.082 68.0013 123.082C64.8093 123.082 63.5073 123.922 63.5073 126.316V126.484H57.1653V126.358C57.1653 121.15 61.5333 117.538 68.4633 117.538C75.4773 117.538 78.7953 121.15 78.7953 126.652V139H72.9153V134.17H72.5793C71.6133 137.446 68.6733 139.42 64.0113 139.42ZM63.0873 133.372C63.0873 134.506 63.9693 134.968 65.8173 134.968C70.1013 134.968 72.4113 133.96 72.5793 130.978L65.2713 131.818C63.7593 131.944 63.0873 132.364 63.0873 133.372ZM88.2886 139H81.9886V110.86H88.2886V139ZM97.8863 139H91.5863V110.86H98.3063L108.386 124.174L112.25 130.096H112.712L112.418 124.426V110.86H118.718V139H111.998L101.624 125.56L98.0543 120.268H97.6343L97.8863 125.434V139ZM133.233 139.42C126.219 139.42 121.431 135.976 121.431 128.5C121.431 121.78 126.177 117.538 133.107 117.538C139.995 117.538 144.573 121.15 144.573 127.744C144.573 128.5 144.489 129.046 144.405 129.76H127.269C127.437 132.994 128.949 134.38 133.023 134.38C136.761 134.38 138.063 133.414 138.063 131.608V131.188H144.363V131.65C144.363 136.228 139.911 139.42 133.233 139.42ZM132.981 122.452C129.243 122.452 127.647 123.712 127.353 126.442H138.525C138.357 123.67 136.677 122.452 132.981 122.452ZM162.07 139H156.862C151.948 139 148.966 136.69 148.966 131.398V123.166H145.648V117.958H148.966V113.884H155.266V117.958H162.07V123.166H155.266V130.684C155.266 132.784 156.064 133.33 158.29 133.33H162.07V139Z" fill="#0069AB"/>
</svg>
