<svg width="168" height="48" viewBox="0 0 168 48" fill="none" xmlns="http://www.w3.org/2000/svg">
<path d="M0 29.2174C0 26.8879 0.459162 24.5811 1.35133 22.429C2.2435 20.2767 3.55112 18.3212 5.19962 16.6739C6.84811 15.0267 8.80508 13.72 10.9589 12.8285C13.1128 11.9372 15.4213 11.4783 17.7526 11.4783V29.2174H0Z" fill="#00A4F4"/>
<path d="M0 29.2174C0 31.684 0.459162 34.1264 1.35133 36.4053C2.2435 38.6841 3.55112 40.7546 5.19962 42.4987C6.84811 44.2428 8.80508 45.6264 10.9589 46.5703C13.1128 47.5142 15.4213 48 17.7526 48V29.2174H0Z" fill="#2CBEFF"/>
<path d="M35.5052 29.2174C35.5052 31.684 35.0464 34.1264 34.1543 36.4053C33.2621 38.6841 31.9546 40.7546 30.3057 42.4987C28.6572 44.2428 26.7002 45.6264 24.5462 46.5703C22.3925 47.5142 20.0839 48 17.7526 48V29.2174H35.5052Z" fill="#75D4FF"/>
<path d="M46.9922 13.5652C46.9922 21.0571 40.914 27.1304 33.4166 27.1304H19.8412V13.5652C19.8412 6.07338 25.9192 0 33.4166 0C40.914 0 46.9922 6.07338 46.9922 13.5652Z" fill="#0084D4"/>
<path d="M64.3122 36H60.1122V17.24H64.3122V24.688H74.1122V17.24H78.3122V36H74.1122V28.468H64.3122V36ZM88.0133 36.28C83.3373 36.28 80.1453 33.984 80.1453 29C80.1453 24.52 83.3093 21.692 87.9293 21.692C92.5213 21.692 95.5733 24.1 95.5733 28.496C95.5733 29 95.5173 29.364 95.4613 29.84H84.0373C84.1493 31.996 85.1573 32.92 87.8733 32.92C90.3653 32.92 91.2333 32.276 91.2333 31.072V30.792H95.4333V31.1C95.4333 34.152 92.4653 36.28 88.0133 36.28ZM87.8453 24.968C85.3533 24.968 84.2893 25.808 84.0933 27.628H91.5413C91.4293 25.78 90.3093 24.968 87.8453 24.968ZM101.666 36.28C98.6424 36.28 96.8224 34.88 96.8224 32.528C96.8224 30.456 98.3624 29.168 101.358 28.86L107.378 28.244V27.712C107.378 25.892 106.566 25.388 104.326 25.388C102.198 25.388 101.33 25.948 101.33 27.544V27.656H97.1024V27.572C97.1024 24.1 100.014 21.692 104.634 21.692C109.31 21.692 111.522 24.1 111.522 27.768V36H107.602V32.78H107.378C106.734 34.964 104.774 36.28 101.666 36.28ZM101.05 32.248C101.05 33.004 101.638 33.312 102.87 33.312C105.726 33.312 107.266 32.64 107.378 30.652L102.506 31.212C101.498 31.296 101.05 31.576 101.05 32.248ZM117.851 36H113.651V17.24H117.851V36ZM124.25 36H120.05V17.24H124.53L131.25 26.116L133.826 30.064H134.134L133.938 26.284V17.24H138.138V36H133.658L126.742 27.04L124.362 23.512H124.082L124.25 26.956V36ZM147.814 36.28C143.138 36.28 139.946 33.984 139.946 29C139.946 24.52 143.11 21.692 147.73 21.692C152.322 21.692 155.374 24.1 155.374 28.496C155.374 29 155.318 29.364 155.262 29.84H143.838C143.95 31.996 144.958 32.92 147.674 32.92C150.166 32.92 151.034 32.276 151.034 31.072V30.792H155.234V31.1C155.234 34.152 152.266 36.28 147.814 36.28ZM147.646 24.968C145.154 24.968 144.09 25.808 143.894 27.628H151.342C151.23 25.78 150.11 24.968 147.646 24.968ZM167.039 36H163.567C160.291 36 158.303 34.46 158.303 30.932V25.444H156.091V21.972H158.303V19.256H162.503V21.972H167.039V25.444H162.503V30.456C162.503 31.856 163.035 32.22 164.519 32.22H167.039V36Z" fill="#0069AB"/>
</svg>
