<svg width="107" height="15" viewBox="0 0 107 15" fill="none" xmlns="http://www.w3.org/2000/svg">
<path d="M7.80488 11.7654L11.5901 13.9214C12.2833 14.3165 13.1316 13.7324 12.9492 12.9937L11.9459 8.93949L15.2933 6.20804C15.9044 5.70985 15.576 4.76501 14.7734 4.70488L10.3679 4.35272L8.64402 0.52181C8.3339 -0.173937 7.27586 -0.173937 6.96574 0.52181L5.24185 4.34413L0.836365 4.69629C0.0337093 4.75642 -0.29465 5.70126 0.316463 6.19945L3.6639 8.9309L2.66058 12.9851C2.47816 13.7238 3.32642 14.3079 4.01963 13.9128L7.80488 11.7654Z" fill="#E9EF20"/>
<path d="M30.439 11.7654L34.2243 13.9214C34.9175 14.3165 35.7657 13.7324 35.5833 12.9937L34.58 8.93949L37.9274 6.20804C38.5386 5.70985 38.2102 4.76501 37.4075 4.70488L33.0021 4.35272L31.2782 0.52181C30.9681 -0.173937 29.91 -0.173937 29.5999 0.52181L27.876 4.34413L23.4705 4.69629C22.6679 4.75642 22.3395 5.70126 22.9506 6.19945L26.2981 8.9309L25.2947 12.9851C25.1123 13.7238 25.9606 14.3079 26.6538 13.9128L30.439 11.7654Z" fill="#E9EF20"/>
<path d="M53.0732 11.7654L56.8584 13.9214C57.5516 14.3165 58.3999 13.7324 58.2175 12.9937L57.2142 8.93949L60.5616 6.20804C61.1727 5.70985 60.8444 4.76501 60.0417 4.70488L55.6362 4.35272L53.9123 0.52181C53.6022 -0.173937 52.5442 -0.173937 52.234 0.52181L50.5102 4.34413L46.1047 4.69629C45.302 4.75642 44.9737 5.70126 45.5848 6.19945L48.9322 8.9309L47.9289 12.9851C47.7465 13.7238 48.5947 14.3079 49.2879 13.9128L53.0732 11.7654Z" fill="#E9EF20"/>
<path d="M75.7073 11.7654L79.4926 13.9214C80.1858 14.3165 81.0341 13.7324 80.8516 12.9937L79.8483 8.93949L83.1958 6.20804C83.8069 5.70985 83.4785 4.76501 82.6759 4.70488L78.2704 4.35272L76.5465 0.52181C76.2364 -0.173937 75.1783 -0.173937 74.8682 0.52181L73.1443 4.34413L68.7388 4.69629C67.9362 4.75642 67.6078 5.70126 68.2189 6.19945L71.5664 8.9309L70.563 12.9851C70.3806 13.7238 71.2289 14.3079 71.9221 13.9128L75.7073 11.7654Z" fill="#E9EF20"/>
<path d="M98.3415 11.7654L102.127 13.9214C102.82 14.3165 103.668 13.7324 103.486 12.9937L102.482 8.93949L105.83 6.20804C106.441 5.70985 106.113 4.76501 105.31 4.70488L100.905 4.35272L99.1806 0.52181C98.8705 -0.173937 97.8125 -0.173937 97.5024 0.52181L95.7785 4.34413L91.373 4.69629C90.5703 4.75642 90.242 5.70126 90.8531 6.19945L94.2005 8.9309L93.1972 12.9851C93.0148 13.7238 93.863 14.3079 94.5562 13.9128L98.3415 11.7654Z" fill="#F3FBC6"/>
<path d="M95.7785 4.34678L97.5024 0.52213C97.6574 0.174043 97.9995 0 98.3415 0V11.7726L94.5562 13.9213C93.863 14.3167 93.0148 13.7322 93.1972 12.9931L94.2005 8.93637L90.8531 6.20324C90.242 5.70475 90.5703 4.75933 91.373 4.69917L95.7785 4.34678Z" fill="#E9EF20"/>
</svg>
